# AST/ASF file generated using VICON BodyLanguage
# -----------------------------------------------
:version 1.10
:name VICON
:units
  mass 1.0
  length 0.45
  angle deg
:documentation
   .ast/.asf automatically generated from VICON data using
   VICON BodyBuilder and BodyLanguage model FoxedUp or BRILLIANT.MOD
:root
   order TX TY TZ RX RY RZ
   axis XYZ
   position 0 0 0  
   orientation 0 0 0 
:bonedata
  begin
     id 1 
     name lhipjoint
     direction 0.660183 -0.676772 0.325788 
     length 2.75133 
     axis 0 0 0  XYZ
  end
  begin
     id 2 
     name lfemur
     direction 0.34202 -0.939693 0  
     length 7.70317  
     axis 0 0 20  XYZ
    dof rx ry rz
    limits (-160.0 20.0)
           (-70.0 70.0)
           (-60.0 70.0)
  end
  begin
     id 3 
     name ltibia
     direction 0.342105 -0.939662 0   
     length 7.18701   
     axis 0 0 20   XYZ
    dof rx
    limits (-10.0 170.0)
  end
  begin
     id 4 
     name lfoot
     direction 0.14163 -0.389126 0.910232   
     length 2.41719   
     axis -90 7.62852e-016 20   XYZ
    dof rx rz
    limits (-45.0 90.0)
           (-70.0 20.0)
  end
  begin
     id 5 
     name ltoes
     direction 1.53533e-011 -4.21926e-011 1   
     length 1.18611   
     axis -90 7.62852e-016 20   XYZ
    dof rx
    limits (-90.0 20.0)
  end
  begin
     id 6 
     name rhipjoint
     direction -0.6658 -0.67229 0.323631   
     length 2.76968  
     axis 0 0 0  XYZ 
  end
  begin
     id 7 
     name rfemur
     direction -0.34202 -0.939693 0   
     length 7.92547   
     axis 0 0 -20   XYZ
    dof rx ry rz
    limits (-160.0 20.0)
           (-70.0 70.0)
           (-70.0 60.0)
  end
  begin
     id 8 
     name rtibia
     direction -0.342022 -0.939692 0   
     length 7.22641   
     axis 0 0 -20   XYZ
    dof rx
    limits (-10.0 170.0)
 end
 begin
     id 9 
     name rfoot
     direction -0.105675 -0.29034 0.951071   
     length 2.48149  
     axis -90 -7.62852e-016 -20   XYZ
    dof rx rz
    limits (-45.0 90.0)
           (-20.0 70.0)
  end
  begin
     id 10 
     name rtoes
     direction -1.5349e-011 -4.21859e-011 1   
     length 1.23343   
     axis -90 -7.62852e-016 -20   XYZ
    dof rx
    limits (-90.0 20.0)
  end
  begin
     id 11 
     name lowerback
     direction 0.0104173 0.993624 -0.112266   
     length 2.00527   
     axis 0 0 0   XYZ
    dof rx ry rz
    limits (-20.0 45.0)
           (-30.0 30.0)
           (-30.0 30.0)
  end
  begin
     id 12 
     name upperback
     direction 0.00733149 0.999856 -0.0152913   
     length 2.01385   
     axis 0 0 0   XYZ
    dof rx ry rz
    limits (-20.0 45.0)
           (-30.0 30.0)
           (-30.0 30.0)
  end
  begin
     id 13 
     name thorax
     direction 0.0026304 0.999318 0.036841   
     length 2.03734   
     axis 0 0 0   XYZ
    dof rx ry rz
    limits (-20.0 45.0)
           (-30.0 30.0)
           (-30.0 30.0)
  end
  begin
     id 14 
     name lowerneck
     direction 0.0293154 0.998757 0.0403082   
     length 1.65303   
     axis 0 0 0   XYZ
    dof rx ry rz
    limits (-20.0 45.0)
           (-30.0 30.0)
           (-30.0 30.0)
  end
  begin
     id 15 
     name upperneck
     direction -0.0376619 0.998184 -0.0470083   
     length 1.60926   
     axis 0 0 0   XYZ
    dof rx ry rz
    limits (-20.0 45.0)
           (-30.0 30.0)
           (-30.0 30.0)
  end
  begin
     id 16
     name head
     direction -0.0170133 0.999635 -0.0209778  
     length 1.73625  
     axis 0 0 0   XYZ
    dof rx ry rz
    limits (-20.0 45.0)
           (-30.0 30.0)
           (-30.0 30.0)
  end
  begin
     id 17 
     name lclavicle
     direction 0.919857 0.39181 -0.0186333  
     length 3.75313  
     axis 0 0 0   XYZ
    dof ry rz
    limits (-20.0 10.0)
           (0.0 20.0)
  end
  begin
     id 18 
     name lhumerus
     direction 1 -4.48988e-011 1.44029e-027   
     length 5.49313   
     axis 180 -30 -90   XYZ
    dof rx ry rz
    limits (-60.0 90.0)
           (-90.0 90.0)
           (-90.0 90.0)
  end
  begin
     id 19
     name lradius
     direction 1 -4.48924e-011 7.46281e-027   
     length 3.29037   
     axis 180 -30 -90   XYZ
    dof rx
    limits (-10.0 170.0)
  end
  begin
     id 20
     name lwrist
     direction 1 -4.48955e-011 2.19879e-026   
     length 1.64519   
     axis -1.34358e-014 90 90   XYZ
    dof ry
    limits (-180.0 0.0)
 end
  begin
     id 21 
     name lhand
     direction 1 -4.48978e-011 4.39747e-026   
     length 0.729656   
     axis -2.80598e-014 90 90   XYZ
    dof rx rz
    limits (-90.0 90.0)
           (-45.0 45.0)
  end
  begin
     id 22 
     name lfingers
     direction 1 -4.49071e-011 8.79411e-026   
     length 0.588268   
     axis -5.61193e-014 90 90   XYZ
    dof rx
    limits (0.0 90.0)
  end
  begin
     id 23
     name lthumb
     direction 0.707107 -6.34817e-011 0.707107   
     length 0.844638   
     axis -90 45 -9.86923e-015   XYZ
    dof rx rz
    limits (-45.0 45.0)
           (-45.0 45.0)
  end
  begin
     id 24 
     name rclavicle
     direction -0.919898 0.388279 0.0550233   
     length 3.7171  
     axis 0 0 0   XYZ 
    dof ry rz
    limits (-10.0 20.0)
           (-20.0 0.0)
  end
  begin
     id 25 
     name rhumerus
     direction -1 -4.48968e-011 9.98372e-028  
     length 5.23684   
     axis 180 30 90   XYZ
    dof rx ry rz
    limits (-90.0 60.0)
           (-90.0 90.0)
           (-90.0 90.0)
  end
  begin
     id 26 
     name rradius
     direction -1 -4.48956e-011 1.01023e-026   
     length 3.38251   
     axis 180 30 90   XYZ
    dof rx
    limits (-10.0 170.0)
  end
  begin
     id 27 
     name rwrist
     direction -1 -4.4892e-011 2.19886e-026   
     length 1.69126   
     axis -1.34358e-014 -90 -90   XYZ
    dof ry
    limits (-180.0 0.0)
  end
  begin
     id 28
     name rhand
     direction -1 -4.49024e-011 4.39727e-026   
     length 0.691454   
     axis -2.80598e-014 -90 -90   XYZ
    dof rx rz
    limits (-90.0 90.0)
           (-45.0 45.0)
  end
  begin
     id 29
     name rfingers
     direction -1 -4.49097e-011 8.79388e-026   
     length 0.557468   
     axis -5.61193e-014 -90 -90   XYZ
    dof rx
    limits (0.0 90.0)
  end
  begin
     id 30
     name rthumb
     direction -0.707107 -6.34938e-011 0.707107   
     length 0.800416   
     axis -90 -45 9.86923e-015   XYZ
    dof rx rz
    limits (-45.0 45.0)
           (-45.0 45.0)
  end
:hierarchy
  begin
    root lhipjoint rhipjoint lowerback
    lhipjoint lfemur
    lfemur ltibia
    ltibia lfoot
    lfoot ltoes
    rhipjoint rfemur
    rfemur rtibia
    rtibia rfoot
    rfoot rtoes
    lowerback upperback
    upperback thorax
    thorax lowerneck lclavicle rclavicle
    lowerneck upperneck
    upperneck head
    lclavicle lhumerus
    lhumerus lradius
    lradius lwrist
    lwrist lhand lthumb
    lhand lfingers
    rclavicle rhumerus
    rhumerus rradius
    rradius rwrist
    rwrist rhand rthumb
    rhand rfingers
  end

#!OML:ASF H:\BabyWalks\Project 1\Capture day 1\Session 1\baby.ASF
:FULLY-SPECIFIED
:DEGREES
433
root -30.2186 17.065 -2.3581 -47.6419 79.4498 -44.8082
lowerback 16.3026 -0.47229 9.53829
upperback 3.12481 1.4091 2.77555
thorax -5.64133 0.643276 -2.7271
lowerneck 2.084 2.58017 4.48031
upperneck -6.49615 3.33527 -6.079
head -2.2566 1.74601 -2.8454
rclavicle -2.28602e-014 -2.8625e-014
rhumerus -78.0862 51.0794 -112.107
rradius 83.1982
rwrist 18.5212
rhand -15.0032 14.0239
rfingers 7.12502
rthumb 11.1617 -15.6592
lclavicle -2.28602e-014 -2.8625e-014
lhumerus -67.6179 -44.5667 105.525
lradius 82.605
lwrist -10.3222
lhand -4.90064 -19.372
lfingers 7.12502
lthumb 20.8889 9.52332
rfemur 23.6518 -4.60428 31.3833
rtibia -2.22639e-014
rfoot -16.7549 -13.3176
rtoes -10.6815
lfemur -34.5634 2.57284 -5.27092
ltibia 36.0695
lfoot -18.8817 -4.27915
ltoes -10.2416
434
root -30.1369 17.0687 -2.36942 -47.5959 79.2825 -44.8538
lowerback 16.0401 -0.353208 9.61796
upperback 3.05461 1.54873 2.80289
thorax -5.5564 0.710087 -2.76653
lowerneck 2.0459 2.53352 4.36471
upperneck -6.23405 3.27832 -5.95961
head -2.16881 1.71432 -2.77503
rclavicle 3.03147e-014 2.8625e-014
rhumerus -78.2967 51.0957 -112.207
rradius 83.2264
rwrist 18.3747
rhand -14.9795 13.9584
rfingers 7.12502
rthumb 11.1846 -15.7235
lclavicle 3.03147e-014 2.8625e-014
lhumerus -67.3817 -44.6253 105.367
lradius 82.6344
lwrist -10.4988
lhand -4.65697 -19.3583
lfingers 7.12502
lthumb 21.123 9.5111
rfemur 23.8472 -4.44907 31.4273
rtibia -6.99722e-014
rfoot -16.8558 -13.2893
rtoes -10.8991
lfemur -34.7449 2.00833 -4.87836
ltibia 35.1476
lfoot -18.9787 -3.62496
ltoes -10.1788
435
root -30.0539 17.068 -2.3808 -47.5921 79.0876 -44.9079
lowerback 15.7913 -0.241354 9.68486
upperback 3.00562 1.6791 2.84802
thorax -5.4577 0.774674 -2.77718
lowerneck 2.01178 2.49837 4.23641
upperneck -5.98217 3.23665 -5.83104
head -2.08469 1.69043 -2.70029
rclavicle -2.52457e-014 -4.09496e-014
rhumerus -78.5114 51.1726 -112.299
rradius 83.2618
rwrist 18.206
rhand -14.9384 13.9096
rfingers 7.12502
rthumb 11.2242 -15.7702
lclavicle -2.52457e-014 -4.09496e-014
lhumerus -67.1017 -44.6439 105.182
lradius 82.6609
lwrist -10.7101
lhand -4.42309 -19.3526
lfingers 7.12502
lthumb 21.3476 9.49156
rfemur 24.0885 -4.28345 31.4907
rtibia -5.08889e-014
rfoot -16.9921 -13.261
rtoes -11.1561
lfemur -34.9057 1.50579 -4.46606
ltibia 34.3997
lfoot -19.0317 -2.92374
ltoes -9.96592
436
root -29.9696 17.0626 -2.39196 -47.6457 78.8775 -44.9812
lowerback 15.5736 -0.14303 9.7362
upperback 2.97103 1.79354 2.90423
thorax -5.36304 0.832627 -2.76394
lowerneck 1.97273 2.47543 4.09377
upperneck -5.72529 3.21163 -5.68311
head -1.99771 1.67458 -2.61691
rclavicle -2.28602e-014 -1.39149e-014
rhumerus -78.7413 51.3037 -112.405
rradius 83.3033
rwrist 18.0147
rhand -14.9035 13.8486
rfingers 7.12502
rthumb 11.2578 -15.8293
lclavicle -2.28602e-014 -1.39149e-014
lhumerus -66.8128 -44.6175 104.98
lradius 82.6933
lwrist -10.9797
lhand -4.18581 -19.3436
lfingers 7.12502
lthumb 21.5755 9.47455
rfemur 24.3809 -4.11838 31.5666
rtibia -1.59028e-014
rfoot -17.1627 -13.2324
rtoes -11.4219
lfemur -35.0423 1.07031 -4.05423
ltibia 33.8111
lfoot -19.0379 -2.22617
ltoes -9.62558
437
root -29.8842 17.0521 -2.40276 -47.7991 78.6549 -45.1164
lowerback 15.3838 -0.0591589 9.77832
upperback 2.95207 1.89137 2.97023
thorax -5.26938 0.883652 -2.73183
lowerneck 1.92721 2.46025 3.94552
upperneck -5.46781 3.19719 -5.5205
head -1.90933 1.66371 -2.52811
rclavicle -7.60351e-015 -9.93923e-015
rhumerus -78.9772 51.4756 -112.517
rradius 83.3496
rwrist 17.8035
rhand -14.8598 13.7949
rfingers 7.12502
rthumb 11.3 -15.8807
lclavicle -7.60351e-015 -9.93923e-015
lhumerus -66.5227 -44.5683 104.766
lradius 82.7318
lwrist -11.3201
lhand -3.92947 -19.3184
lfingers 7.12502
lthumb 21.8217 9.47133
rfemur 24.723 -3.96281 31.6607
rtibia -9.54166e-015
rfoot -17.3771 -13.2081
rtoes -11.7231
lfemur -35.1578 0.718284 -3.65306
ltibia 33.3671
lfoot -18.9978 -1.59849
ltoes -9.21097
438
root -29.7977 17.036 -2.41303 -48.0497 78.4305 -45.3109
lowerback 15.2252 0.0083964 9.80663
upperback 2.94635 1.9695 3.04109
thorax -5.1815 0.925857 -2.68332
lowerneck 1.87053 2.45103 3.79679
upperneck -5.20669 3.19104 -5.343
head -1.81786 1.65653 -2.43461
rclavicle -3.03147e-015 1.70955e-014
rhumerus -79.2168 51.6759 -112.639
rradius 83.3967
rwrist 17.5795
rhand -14.8352 13.7354
rfingers 7.12502
rthumb 11.3237 -15.9389
lclavicle -3.03147e-015 1.70955e-014
lhumerus -66.2555 -44.5009 104.554
lradius 82.7841
lwrist -11.7398
lhand -3.67627 -19.2651
lfingers 7.12502
lthumb 22.0648 9.49606
rfemur 25.1148 -3.82414 31.7656
rtibia -1.27222e-014
rfoot -17.6351 -13.1914
rtoes -12.0099
lfemur -35.2443 0.442668 -3.27381
ltibia 33.0499
lfoot -18.9264 -1.09555
ltoes -8.74053
439
root -29.7101 17.0136 -2.42287 -48.4042 78.209 -45.5774
lowerback 15.0891 0.0613567 9.82593
upperback 2.95143 2.0296 3.11256
thorax -5.09692 0.959853 -2.62598
lowerneck 1.81639 2.44184 3.66452
upperneck -4.96011 3.18515 -5.1624
head -1.73182 1.64931 -2.34405
rclavicle 1.28713e-014 3.18055e-015
rhumerus -79.4541 51.8852 -112.764
rradius 83.4436
rwrist 17.3429
rhand -14.7839 13.6878
rfingers 7.12502
rthumb 11.3731 -15.9838
lclavicle 1.28713e-014 3.18055e-015
lhumerus -66.0259 -44.436 104.354
lradius 82.8525
lwrist -12.2395
lhand -3.40094 -19.1621
lfingers 7.12502
lthumb 22.3291 9.56765
rfemur 25.5518 -3.70705 31.8806
rtibia -1.24042e-013
rfoot -17.9456 -13.1837
rtoes -12.2635
lfemur -35.3025 0.229118 -2.91606
ltibia 32.8473
lfoot -18.8419 -0.756752
ltoes -8.23328
